#!OML:ASF H:\charlestonDancing\Project 1\Capture day 1\Session 1\femaleDancer.ASF
:FULLY-SPECIFIED
:DEGREES
1399
root -14.7361 17.6493 2.54588 489.724 -86.2174 -488.168
lowerback 6.81053 0.199985 2.2325
upperback -1.90653 0.427015 -0.73824
thorax -5.78977 0.116824 -2.07447
lowerneck -0.905992 0.330099 4.16597
upperneck 1.53817 0.373513 -0.378987
head 0.630254 0.203765 -0.803375
rclavicle 4.01297e-015 -1.98785e-015
rhumerus -299.433 256.718 -90.3743
rradius 13.5292
rwrist 109.092
rhand -24.9981 -31.5889
rfingers 7.12502
rthumb 181.513 118.437
lclavicle 4.01297e-015 -1.98785e-015
lhumerus -25.9782 50.2511 6.84767
lradius 12.4021
lwrist -42.8607
lhand -23.3954 25.8429
lfingers 7.12502
lthumb 3.06121 55.8007
rfemur -11.611 0.527675 18.4687
rtibia 33.6131
rfoot -20.2883 -8.81039
rtoes -22.7478
lfemur -12.2909 -6.27673 -10.323
ltibia 35.392
lfoot -18.7548 -5.13601
ltoes -23.707
1400
root -14.7256 17.643 2.53128 488.862 -85.7038 -487.396
lowerback 6.89106 0.299593 2.51417
upperback -1.84801 0.598618 -0.539512
thorax -5.76493 0.19644 -2.046
lowerneck -0.989869 0.40035 4.0084
upperneck 1.55716 0.46555 -0.343089
head 0.651271 0.24963 -0.764821
rclavicle -3.73964e-015 9.54166e-015
rhumerus -301.282 256.607 -88.3984
rradius 13.5599
rwrist 109.439
rhand -24.8525 -31.9537
rfingers 7.12502
rthumb 181.654 118.073
lclavicle -3.73964e-015 9.54166e-015
lhumerus -26.3641 51.1478 6.39273
lradius 12.2863
lwrist -43.77
lhand -23.4998 25.5964
lfingers 7.12502
lthumb 2.96046 55.5556
rfemur -11.5824 1.23379 19.0666
rtibia 33.5853
rfoot -20.1686 -9.23654
rtoes -22.8151
lfemur -12.2198 -6.07162 -9.76782
ltibia 35.4454
lfoot -18.7149 -5.21
ltoes -23.3888
1401
root -14.7184 17.6408 2.52465 487.423 -85.4997 -486.027
lowerback 6.91958 0.320264 2.70673
upperback -1.80043 0.650356 -0.425858
thorax -5.72799 0.218434 -2.04172
lowerneck -1.16218 0.48667 3.76543
upperneck 1.68652 0.572879 -0.171738
head 0.720038 0.304928 -0.669881
rclavicle -3.57812e-015 2.78299e-015
rhumerus -300.747 256.729 -88.8762
rradius 13.5851
rwrist 109.231
rhand -24.9112 -32.0226
rfingers 7.12502
rthumb 181.597 118.004
lclavicle -3.57812e-015 2.78299e-015
lhumerus -26.8149 52.0982 5.87319
lradius 12.2054
lwrist -44.8184
lhand -23.4668 25.3557
lfingers 7.12502
lthumb 2.99232 55.3145
rfemur -11.5146 1.49108 19.368
rtibia 33.543
rfoot -20.2563 -9.35093
rtoes -22.1732
lfemur -12.1838 -5.96064 -9.47703
ltibia 35.4644
lfoot -18.6424 -5.29013
ltoes -23.5512
1402
root -14.7172 17.6427 2.52539 485.937 -85.6508 -484.564
lowerback 6.86866 0.280725 2.7528
upperback -1.80393 0.599052 -0.447817
thorax -5.70494 0.191435 -2.08404
lowerneck -1.09482 0.478261 3.67131
upperneck 1.66629 0.564361 -0.0715991
head 0.701123 0.300532 -0.62302
rclavicle 6.21202e-018 1.98785e-015
rhumerus -298.473 256.912 -91.132
rradius 13.582
rwrist 108.719
rhand -25.1474 -31.8783
rfingers 7.12502
rthumb 181.369 118.146
lclavicle 6.21202e-018 1.98785e-015
lhumerus -26.5485 51.5056 6.26275
lradius 12.2555
lwrist -44.282
lhand -23.4382 25.612
lfingers 7.12502
lthumb 3.01988 55.5703
rfemur -11.4399 1.28127 19.2869
rtibia 33.4975
rfoot -20.3477 -9.25352
rtoes -21.8748
lfemur -12.2175 -6.0096 -9.53695
ltibia 35.4913
lfoot -18.658 -5.33974
ltoes -23.9145
1403
root -14.7157 17.6472 2.52609 485.398 -85.9426 -484.051
lowerback 6.86801 0.226417 2.66955
upperback -1.84026 0.514059 -0.543928
thorax -5.74729 0.149518 -2.12792
lowerneck -0.83137 0.432975 3.87941
upperneck 1.51338 0.516277 -0.224153
head 0.610954 0.27441 -0.705426
rclavicle -2.61526e-015 7.15625e-015
rhumerus -298.044 256.884 -91.5541
rradius 13.5883
rwrist 108.756
rhand -25.3839 -31.6223
rfingers 7.12502
rthumb 181.141 118.401
lclavicle -2.61526e-015 7.15625e-015
lhumerus -26.0416 50.061 6.99509
lradius 12.3939
lwrist -42.8407
lhand -23.4632 25.7226
lfingers 7.12502
lthumb 2.99579 55.6813
rfemur -11.3743 1.04719 19.0185
rtibia 33.4763
rfoot -20.3281 -9.19051
rtoes -22.1794
lfemur -12.2289 -6.0801 -9.78167
ltibia 35.4658
lfoot -18.6285 -5.45873
ltoes -23.6168
1404
root -14.7103 17.6428 2.52479 484.555 -86.0642 -483.257
lowerback 6.91285 0.191698 2.68133
upperback -1.85196 0.468571 -0.572257
thorax -5.78752 0.125342 -2.15939
lowerneck -0.703371 0.452114 4.11693
upperneck 1.48572 0.547725 -0.416425
head 0.584159 0.289734 -0.805154
rclavicle -9.37394e-015 3.18055e-015
rhumerus -299.14 256.775 -90.3998
rradius 13.566
rwrist 109.13
rhand -25.5491 -31.4602
rfingers 7.12502
rthumb 180.981 118.562
lclavicle -9.37394e-015 3.18055e-015
lhumerus -25.8839 49.2523 7.31168
lradius 12.4762
lwrist -42.0782
lhand -23.4537 25.4243
lfingers 7.12502
lthumb 3.00492 55.3829
rfemur -11.2969 0.978347 18.942
rtibia 33.4816
rfoot -20.323 -9.21936
rtoes -21.9678
lfemur -12.2232 -6.07111 -9.84404
ltibia 35.4466
lfoot -18.5266 -5.60379
ltoes -23.3103
1405
root -14.7037 17.6402 2.5245 483.281 -86.1654 -481.997
lowerback 6.90781 0.175062 2.71457
upperback -1.84555 0.449116 -0.573514
thorax -5.77886 0.114759 -2.17706
lowerneck -0.709647 0.47837 4.15059
upperneck 1.52195 0.581756 -0.430446
head 0.597451 0.307261 -0.815057
rclavicle -1.2921e-015 -5.56597e-015
rhumerus -297.95 256.866 -91.5311
rradius 13.5107
rwrist 108.849
rhand -25.592 -31.5887
rfingers 7.12502
rthumb 180.94 118.434
lclavicle -1.2921e-015 -5.56597e-015
lhumerus -26.2487 50.2579 6.80143
lradius 12.3372
lwrist -43.1472
lhand -23.4137 25.2234
lfingers 7.12502
lthumb 3.04358 55.1814
rfemur -11.251 0.909978 18.899
rtibia 33.4807
rfoot -20.4256 -9.19204
rtoes -21.16
lfemur -12.27 -6.04939 -9.87165
ltibia 35.4385
lfoot -18.4203 -5.71434
ltoes -23.2854
1406
root -14.6952 17.6401 2.52479 481.888 -86.2948 -480.578
lowerback 6.89175 0.163825 2.72588
upperback -1.84543 0.434063 -0.584423
thorax -5.77033 0.106863 -2.1929
lowerneck -0.798162 0.46056 4.0346
upperneck 1.54407 0.554056 -0.348418
head 0.617283 0.293667 -0.770072
rclavicle -7.20594e-016 4.77083e-015
rhumerus -296.981 256.921 -92.4671
rradius 13.5002
rwrist 108.556
rhand -25.5499 -31.7278
rfingers 7.12502
rthumb 180.981 118.295
lclavicle -7.20594e-016 4.77083e-015
lhumerus -26.7303 51.7262 6.11098
lradius 12.165
lwrist -44.5855
lhand -23.2547 25.4672
lfingers 7.12502
lthumb 3.19715 55.423
rfemur -11.2729 0.822781 18.8271
rtibia 33.4769
rfoot -20.524 -9.16417
rtoes -20.8636
lfemur -12.3827 -6.03186 -9.92055
ltibia 35.463
lfoot -18.3354 -5.8602
ltoes -23.0221
1407
root -14.6895 17.6408 2.52454 480.53 -86.346 -479.23
lowerback 6.9098 0.1539 2.75848
upperback -1.84603 0.425312 -0.566494
thorax -5.78176 0.101541 -2.19169
lowerneck -0.947554 0.454869 4.02462
upperneck 1.66744 0.540098 -0.410596
head 0.680433 0.287896 -0.788194
rclavicle -3.76448e-015 5.96354e-015
rhumerus -296.826 256.942 -92.5907
rradius 13.5065
rwrist 108.453
rhand -25.4775 -31.7463
rfingers 7.12502
rthumb 181.05 118.277
lclavicle -3.76448e-015 5.96354e-015
lhumerus -26.533 51.2899 6.46501
lradius 12.2069
lwrist -44.0498
lhand -22.9735 25.9716
lfingers 7.12502
lthumb 3.46874 55.9231
rfemur -11.2662 0.784175 18.8262
rtibia 33.4772
rfoot -20.5599 -9.17414
rtoes -20.7138
lfemur -12.4292 -6.03244 -9.90506
ltibia 35.47
lfoot -18.2833 -5.97603
ltoes -22.9026
